#!OML:ASF F:\VICON\USERDATA\INSTALL\rory3\rory3.ASF
:FULLY-SPECIFIED
:DEGREES
46
root 4.63152 17.8993 -21.3345 -0.597858 -5.19486 -7.83016
lowerback 11.4313 1.21653 7.01677
upperback 0.50005 2.6857 2.67751
thorax -5.70598 1.16577 -1.55782
lowerneck -17.4776 -3.35662 -1.8533
upperneck 19.903 -4.15781 0.0556684
head 9.18429 -2.07847 -0.212699
rclavicle -1.62258e-014 1.78906e-014
rhumerus -22.7681 -7.38916 -82.3741
rradius 30.0429
rwrist -0.846796
rhand -19.1889 22.0855
rfingers 7.12502
rthumb 7.12277 -7.77461
lclavicle -1.62258e-014 1.78906e-014
lhumerus -34.9023 8.59239 80.6215
lradius 26.1757
lwrist 3.97015
lhand -27.3281 15.2868
lfingers 7.12502
lthumb -0.737014 45.2653
rfemur 1.17002 8.19251 35.095
rtibia 25.6407
rfoot -20.5232 -7.00763
rtoes 4.20149
lfemur -28.5039 -1.4397 -10.541
ltibia 25.8612
lfoot -4.61922 5.32343
ltoes -1.45923
47
root 4.63943 17.8783 -21.1532 -0.377691 -5.15952 -7.83352
lowerback 11.2581 1.19606 6.96925
upperback 0.300364 2.65141 2.70439
thorax -5.82715 1.14319 -1.49505
lowerneck -17.1675 -3.25765 -2.13151
upperneck 20.1231 -4.00445 0.271913
head 9.21419 -2.00508 -0.0701353
rclavicle -6.28781e-014 -5.86415e-014
rhumerus -22.8774 -7.11111 -82.3247
rradius 30.4042
rwrist -1.08316
rhand -19.0017 22.0519
rfingers 7.12502
rthumb 7.30348 -7.80204
lclavicle -6.28781e-014 -5.86415e-014
lhumerus -35.3448 8.95548 80.4243
lradius 25.8002
lwrist 3.87211
lhand -26.4477 19.3404
lfingers 7.12502
lthumb 0.113351 49.3201
rfemur 1.74857 8.16418 35.0915
rtibia 25.3987
rfoot -20.9081 -7.11436
rtoes 3.60955
lfemur -28.2903 -2.5733 -10.0664
ltibia 22.8531
lfoot -4.78924 5.71925
ltoes 2.28709
48
root 4.64882 17.8684 -20.97 -0.220562 -5.19795 -7.66437
lowerback 11.0383 1.28502 6.91788
upperback 0.336301 2.72937 2.53569
thorax -5.65286 1.18727 -1.64808
lowerneck -17.2337 -3.22802 -2.05712
upperneck 20.0477 -4.01285 0.409414
head 9.20148 -1.98749 -0.0367286
rclavicle 6.72141e-015 1.42131e-014
rhumerus -22.4802 -7.392 -82.3584
rradius 30.4959
rwrist -0.931687
rhand -18.8248 22.2548
rfingers 7.12502
rthumb 7.47424 -7.59312
lclavicle 6.72141e-015 1.42131e-014
lhumerus -35.2071 9.23071 80.1226
lradius 25.3074
lwrist 3.6204
lhand -25.8833 21.1821
lfingers 7.12502
lthumb 0.658443 51.1608
rfemur 2.37261 8.11383 34.87
rtibia 25.129
rfoot -21.329 -6.9958
rtoes 3.93406
lfemur -27.9027 -3.88677 -9.69307
ltibia 19.8675
lfoot -5.3507 6.441
ltoes 1.50487
49
root 4.654 17.8337 -20.7906 -0.0758556 -5.35569 -7.79464
lowerback 10.9388 1.38101 7.02261
upperback 0.446348 2.84985 2.48688
thorax -5.46331 1.25145 -1.77018
lowerneck -17.6154 -3.25988 -1.83589
upperneck 19.9619 -4.08889 0.326984
head 9.23499 -2.01333 -0.116761
rclavicle -9.10682e-015 -1.00386e-014
rhumerus -22.0153 -7.37767 -82.4869
rradius 30.7062
rwrist -1.01085
rhand -18.914 22.2649
rfingers 7.12502
rthumb 7.38815 -7.58614
lclavicle -9.10682e-015 -1.00386e-014
lhumerus -35.0528 9.48832 79.9052
lradius 25.0274
lwrist 3.34186
lhand -26.0587 21.8984
lfingers 7.12502
lthumb 0.489079 51.8776
rfemur 3.04575 8.29301 35.0396
rtibia 24.8268
rfoot -21.4968 -7.03864
rtoes 3.57739
lfemur -27.516 -5.04058 -8.92838
ltibia 16.9623
lfoot -4.48213 6.68653
ltoes 1.34927
50
root 4.66213 17.8205 -20.6157 0.0645124 -5.36909 -7.81636
lowerback 10.9903 1.3836 6.99307
upperback 0.276295 2.86679 2.49901
thorax -5.67367 1.25032 -1.74808
lowerneck -17.275 -3.29387 -1.92756
upperneck 19.8804 -4.11145 0.302209
head 9.14664 -2.0358 -0.106418
rclavicle -2.07854e-014 -1.75924e-014
rhumerus -22.1001 -7.05282 -82.4804
rradius 31.0491
rwrist -1.38117
rhand -18.8022 22.1131
rfingers 7.12502
rthumb 7.49607 -7.73404
lclavicle -2.07854e-014 -1.75924e-014
lhumerus -35.456 9.81025 79.7113
lradius 24.7565
lwrist 3.26893
lhand -25.9948 22.5053
lfingers 7.12502
lthumb 0.550754 52.4843
rfemur 3.70707 8.11147 35.0242
rtibia 24.4495
rfoot -21.4383 -7.1812
rtoes 1.22666
lfemur -27.2192 -6.40993 -8.25361
ltibia 14.3023
lfoot -4.96433 7.14041
ltoes -4.16769
51
root 4.6725 17.8013 -20.4325 0.127769 -5.39723 -7.84007
lowerback 11.0518 1.38378 7.00719
upperback 0.0673904 2.88868 2.49518
thorax -5.92807 1.24798 -1.76868
lowerneck -16.705 -3.28694 -2.08869
upperneck 19.8495 -4.10616 0.45294
head 9.03949 -2.03213 -0.0177665
rclavicle -4.26766e-015 -2.64384e-014
rhumerus -22.3327 -6.84273 -82.4276
rradius 31.2781
rwrist -1.78652
rhand -18.6562 22.298
rfingers 7.12502
rthumb 7.63695 -7.54414
lclavicle -4.26766e-015 -2.64384e-014
lhumerus -35.8491 10.1323 79.3971
lradius 24.2686
lwrist 3.16862
lhand -26.1734 20.5429
lfingers 7.12502
lthumb 0.378233 50.5223
rfemur 4.38453 7.84598 34.9956
rtibia 24.1775
rfoot -21.4606 -7.27573
rtoes -0.893609
lfemur -26.7613 -7.83717 -7.56325
ltibia 11.8171
lfoot -4.84742 8.11928
ltoes -9.00735
